<mxfile host="app.diagrams.net" modified="2021-12-07T08:45:49.197Z" agent="5.0 (Windows NT 10.0; Win64; x64) AppleWebKit/537.36 (KHTML, like Gecko) Chrome/96.0.4664.45 Safari/537.36" etag="3cIraDqFw6svHJxJpIJm" version="15.8.9" type="github">
  <diagram id="cM2ZmW4HxominK4Ddbyx" name="Page-1">
    <mxGraphModel dx="1038" dy="583" grid="1" gridSize="10" guides="1" tooltips="1" connect="1" arrows="1" fold="1" page="1" pageScale="1" pageWidth="827" pageHeight="1169" math="0" shadow="0">
      <root>
        <mxCell id="0" />
        <mxCell id="1" parent="0" />
        <mxCell id="Gxbs-bBxlD_UwTVCXYwM-1" value="&lt;b&gt;Initializing&amp;nbsp;&lt;/b&gt;" style="html=1;align=center;verticalAlign=top;rounded=1;absoluteArcSize=1;arcSize=10;dashed=0;labelBackgroundColor=default;fontColor=#000000;strokeColor=#000000;fillColor=#FFFFFF;strokeWidth=2;" vertex="1" parent="1">
          <mxGeometry x="110" y="85" width="120" height="80" as="geometry" />
        </mxCell>
        <mxCell id="Gxbs-bBxlD_UwTVCXYwM-2" value="&lt;b&gt;Waiting&lt;/b&gt;" style="html=1;align=center;verticalAlign=top;rounded=1;absoluteArcSize=1;arcSize=10;dashed=0;labelBackgroundColor=default;fontColor=#000000;strokeColor=#000000;fillColor=#FFFFFF;strokeWidth=2;" vertex="1" parent="1">
          <mxGeometry x="350" y="85" width="330" height="135" as="geometry" />
        </mxCell>
        <mxCell id="Gxbs-bBxlD_UwTVCXYwM-3" value="" style="ellipse;html=1;shape=startState;fillColor=#000000;strokeColor=#ff0000;" vertex="1" parent="1">
          <mxGeometry x="40" y="120" width="30" height="30" as="geometry" />
        </mxCell>
        <mxCell id="Gxbs-bBxlD_UwTVCXYwM-4" value="" style="edgeStyle=orthogonalEdgeStyle;html=1;verticalAlign=bottom;endArrow=open;endSize=8;strokeColor=#000000;rounded=0;" edge="1" parent="1" source="Gxbs-bBxlD_UwTVCXYwM-3">
          <mxGeometry relative="1" as="geometry">
            <mxPoint x="110" y="136" as="targetPoint" />
            <Array as="points">
              <mxPoint x="110" y="136" />
              <mxPoint x="110" y="136" />
            </Array>
          </mxGeometry>
        </mxCell>
        <mxCell id="Gxbs-bBxlD_UwTVCXYwM-5" value="" style="edgeStyle=orthogonalEdgeStyle;html=1;verticalAlign=bottom;endArrow=open;endSize=8;strokeColor=#000000;rounded=0;exitX=0.952;exitY=0.619;exitDx=0;exitDy=0;exitPerimeter=0;" edge="1" parent="1" source="Gxbs-bBxlD_UwTVCXYwM-1">
          <mxGeometry relative="1" as="geometry">
            <mxPoint x="350" y="135" as="targetPoint" />
            <mxPoint x="380" y="135" as="sourcePoint" />
            <Array as="points" />
          </mxGeometry>
        </mxCell>
        <mxCell id="Gxbs-bBxlD_UwTVCXYwM-12" value="&lt;span style=&quot;background-color: rgb(248 , 249 , 250)&quot;&gt;Creating&lt;/span&gt;" style="rounded=1;whiteSpace=wrap;html=1;arcSize=40;fontColor=#000000;fillColor=#FFFFFF;strokeColor=#000000;labelBackgroundColor=default;strokeWidth=2;" vertex="1" parent="1">
          <mxGeometry x="125" y="120" width="90" height="35" as="geometry" />
        </mxCell>
        <mxCell id="Gxbs-bBxlD_UwTVCXYwM-13" value="&lt;b&gt;Creation complete&lt;/b&gt;" style="text;html=1;strokeColor=none;fillColor=none;align=center;verticalAlign=middle;whiteSpace=wrap;rounded=0;labelBackgroundColor=default;fontColor=#000000;" vertex="1" parent="1">
          <mxGeometry x="250" y="90" width="60" height="30" as="geometry" />
        </mxCell>
        <mxCell id="Gxbs-bBxlD_UwTVCXYwM-14" value="&lt;b&gt;Receiving&lt;/b&gt;" style="html=1;align=center;verticalAlign=top;rounded=1;absoluteArcSize=1;arcSize=10;dashed=0;labelBackgroundColor=default;fontColor=#000000;strokeColor=#000000;fillColor=#FFFFFF;strokeWidth=2;" vertex="1" parent="1">
          <mxGeometry x="80" y="240" width="220" height="110" as="geometry" />
        </mxCell>
        <mxCell id="Gxbs-bBxlD_UwTVCXYwM-15" value="Receive message instruction to go into receiving state" style="shape=mxgraph.sysml.accEvent;flipH=1;whiteSpace=wrap;align=center;fontStyle=1" vertex="1" parent="1">
          <mxGeometry x="405" y="132.5" width="220" height="40" as="geometry" />
        </mxCell>
        <mxCell id="Gxbs-bBxlD_UwTVCXYwM-16" value="" style="edgeStyle=orthogonalEdgeStyle;html=1;verticalAlign=bottom;endArrow=open;endSize=8;strokeColor=#000000;rounded=0;entryX=0.427;entryY=-0.004;entryDx=0;entryDy=0;entryPerimeter=0;" edge="1" parent="1" target="Gxbs-bBxlD_UwTVCXYwM-14">
          <mxGeometry relative="1" as="geometry">
            <mxPoint x="525.76" y="300" as="targetPoint" />
            <mxPoint x="350" y="190" as="sourcePoint" />
            <Array as="points">
              <mxPoint x="350" y="220" />
              <mxPoint x="350" y="190" />
              <mxPoint x="174" y="190" />
            </Array>
          </mxGeometry>
        </mxCell>
        <mxCell id="Gxbs-bBxlD_UwTVCXYwM-17" value="&lt;b&gt;Received message to into receiving state&lt;/b&gt;" style="text;html=1;strokeColor=none;fillColor=none;align=center;verticalAlign=middle;whiteSpace=wrap;rounded=0;labelBackgroundColor=default;fontColor=#000000;" vertex="1" parent="1">
          <mxGeometry x="190" y="200" width="130" height="30" as="geometry" />
        </mxCell>
      </root>
    </mxGraphModel>
  </diagram>
</mxfile>
